<svg xmlns="http://www.w3.org/2000/svg" width="3134.092" height="569.077" viewBox="0 0 3134.092 569.077"><path id="JUNE_PEDUZZI" data-name="JUNE PEDUZZI" d="M2662.617,758.048c-47.736,0-83.982-14.028-107.729-41.7-23.324-27.174-35.15-67.373-35.15-119.482v-407.9h127.377V592.453c0,15.934,1.493,28.305,4.438,36.77,1.531,4.4,3.915,7.127,11.064,7.127,7.2,0,9.579-2.633,11.09-6.883,2.927-8.234,4.412-20.688,4.412-37.015V188.971H2805.5v407.9c0,52.109-11.826,92.309-35.149,119.482C2746.6,744.019,2710.354,758.048,2662.617,758.048ZM2541.738,210.971v385.9c0,46.7,10.041,82.082,29.844,105.153,19.379,22.577,50.008,34.025,91.035,34.025s71.657-11.448,91.035-34.025c19.8-23.071,29.844-58.45,29.844-105.153v-385.9h-83.377V592.453c0,19.11-1.859,33.629-5.684,44.385-4.932,13.872-16.232,21.513-31.818,21.513-15.622,0-26.931-7.777-31.843-21.9-3.807-10.946-5.659-25.338-5.659-44V210.971ZM772.772,758.048c-47.737,0-83.982-14.028-107.73-41.7-23.323-27.173-35.15-67.373-35.15-119.482v-407.9H757.27V592.453c0,15.934,1.493,28.305,4.438,36.77,1.53,4.4,3.915,7.127,11.065,7.127,7.2,0,9.579-2.633,11.089-6.882,2.928-8.235,4.413-20.689,4.413-37.015V188.971H915.651v407.9c0,52.109-11.826,92.309-35.15,119.482C856.754,744.019,820.508,758.048,772.772,758.048ZM651.893,210.971v385.9c0,46.7,10.041,82.082,29.843,105.153,19.379,22.577,50.008,34.025,91.036,34.025s71.657-11.448,91.036-34.025c19.8-23.071,29.843-58.45,29.843-105.153v-385.9H810.274V592.453c0,19.11-1.859,33.628-5.684,44.385-4.932,13.872-16.232,21.513-31.818,21.513-15.622,0-26.932-7.777-31.844-21.9-3.807-10.947-5.658-25.338-5.658-44V210.971ZM473.678,758.048c-26.362,0-50.678-5.246-72.27-15.593a122.656,122.656,0,0,1-52.245-46.73c-12.6-20.4-18.995-45.163-18.995-73.615V475.445H458.807V615.8c0,7.32,1.342,12.939,3.99,16.7,1.261,1.792,3.494,3.849,9.619,3.849,5.79,0,7.972-1.894,9.226-3.543,2.455-3.23,3.753-8.675,3.753-15.745V188.971H616.557V606.335c0,29.852-6.05,56.517-17.981,79.254-12.076,23.013-29.209,41.056-50.923,53.626C526.068,751.712,501.179,758.048,473.678,758.048Zm-121.51-260.6V622.11c0,24.3,5.285,45.182,15.71,62.05a101,101,0,0,0,43.037,38.455c18.6,8.913,39.718,13.433,62.763,13.433,23.58,0,44.761-5.34,62.953-15.872,18.062-10.457,32.349-25.533,42.465-44.81,10.26-19.552,15.462-42.777,15.462-69.031V210.971H507.394V617.062c0,12.089-2.771,21.865-8.237,29.056-4.241,5.58-12.323,12.232-26.742,12.232-15.149,0-23.376-7.171-27.61-13.187-5.308-7.543-8-17.422-8-29.362V497.445ZM3464.26,753H3337.514V188.971H3464.26Zm-104.746-22h82.746V210.971h-82.746Zm-34.7,22H3069.97V641.646L3189,310.669H3081.959v-121.7h248.529V296.565L3208.379,631.3h116.431ZM3091.97,731h210.839V653.3H3176.936l131.552-360.624V210.971H3103.959v77.7h116.333L3091.97,645.482ZM3066.1,753H2811.26V641.646l119.031-330.977H2823.249v-121.7h248.529V296.565L2949.669,631.3H3066.1ZM2833.26,731H3044.1V653.3H2918.226l131.552-360.624V210.971H2845.249v77.7h116.333L2833.26,645.482Zm-461.534,22H2214.965V188.971h160.547c41.767,0,73.812,12.049,95.246,35.813,21.112,23.406,32.042,57.905,32.488,102.538l1.262,253.718c.437,55.484-9.578,98.191-29.766,126.9C2453.722,737.841,2419.062,753,2371.726,753Zm-134.761-22h134.761c40.315,0,68.125-11.681,85.021-35.711,17.5-24.882,26.163-63.273,25.763-114.107l-1.262-253.694c-.39-39.051-9.416-68.666-26.825-87.968-17.086-18.943-43.635-28.548-78.91-28.548H2236.965ZM2201,753H1954.993V188.971h239.064V315.717H2087.418v83.377H2189.64V523.316H2087.418V625.623H2201Zm-224.005-22H2179V647.623h-113.58V501.316H2167.64V421.094H2065.418V293.717h106.639V210.971H1976.993ZM1785.8,753H1657.161V188.971H1811.4c47.049,0,81.343,15.777,101.931,46.891,19.635,29.675,29.59,73.01,29.59,128.8,0,55.615-8.807,98.493-26.176,127.443-18.456,30.759-51.351,46.355-97.773,46.355H1785.8Zm-106.639-22H1763.8V516.46h55.17c38.693,0,64.5-11.669,78.907-35.675,15.289-25.482,23.041-64.551,23.041-116.123,0-51.4-8.727-90.647-25.937-116.66-16.487-24.918-43.828-37.031-83.583-37.031H1679.161ZM1495.54,753H1249.535V188.971H1488.6V315.717H1381.96v83.377h102.222V523.316H1381.96V625.623h113.58Zm-224.005-22H1473.54V647.623H1359.96V501.316h102.222V421.094H1359.96V293.717H1466.6V210.971H1271.535Zm-47.956,22H1097.553l-34.248-171.241V753H935.3V188.971h131.774l29.762,154.838V188.971h126.746Zm-107.991-22h85.991V210.971h-82.746V459.312l-21.8,2.076L1048.9,210.971H957.3V731h84.008V470.67l21.786-2.157Zm1238.469-73.912h-29.93V283.621h22.989c12.1,0,21.116,1.309,27.578,4,5.622,2.342,13.08,7.575,16.686,19.2,2.243,7.227,3.334,17.272,3.334,30.708V617.062C2394.715,642.5,2379.9,657.088,2354.058,657.088Zm-7.93-22h7.93c13.774,0,18.656-4.717,18.656-18.026V337.529c0-13.747-1.275-20.741-2.345-24.188-1.158-3.732-2.741-4.83-4.136-5.411-2.07-.862-7.3-2.309-19.116-2.309h-.989ZM1781.11,440.655H1763.8V287.407h22.989c24.394,0,35.286,11.542,40.127,21.225,5.876,11.753,8.733,29.462,8.733,54.138,0,17.75-1.005,31.18-3.073,41.06-2.425,11.585-7.781,20.733-15.92,27.188C1808.478,437.5,1796.851,440.655,1781.11,440.655Zm4.69-131.248V418.529c9.821-.551,14.743-2.812,17.185-4.749,4.06-3.22,6.7-7.949,8.057-14.458,1.729-8.263,2.606-20.561,2.606-36.553,0-26.017-3.486-38.45-6.411-44.3-1.945-3.89-6.182-9.063-20.45-9.063Z" transform="translate(-330.168 -188.971)"></path></svg>